# xmcd
#
# Track frame offsets: 
#        150
#        11185
#        25050
#        37760
#        50932
#        62450
#        74472
#        85615
#        98710
#        109770
#        124287
#        136420
#        147160
#        158655
#        171322
#        182372
#        194152
#        206162
#        219140
#        231562
#        242155
#        255660
#        266785
#        279077
#        288872
#        302937
#
# Disc length: 4160 seconds
#
# Revision: 4
# Processed by: cddbd v1.5.2PL0 Copyright (c) Steve Scherf et al.
# Submitted via: ExactAudioCopyFreeDBPlugin 1.0
#
DISCID=80103e1a
DTITLE=Various Artist - The OKeh Rhythm and Blues Story, 1949-1957
DYEAR=1993
DGENRE=Rhythm and Blues
TTITLE0=Jumpin' Joe Williams with Red Saunders and His Orchestra - Hey B
TTITLE0=artender Give That Man a Drink
TTITLE1=Little Brother Brown - Goof Boogie
TTITLE2=Chuck Willis - I Rule My House
TTITLE3=Pinnochio James - Pinnochio's Blues
TTITLE4=Larry Darnell - I'll Be Sittin', I'll Be Rockin'
TTITLE5=Annie Laurie - It's Been a Long Time
TTITLE6=Hadda Brooks - Jump Back Honey
TTITLE7=Titus Turner - Got So Much Trouble
TTITLE8=The Royals - Gas Happy Mama
TTITLE9=Chuck Willis with The Royals - My Story
TTITLE10=Big Maybelle - Gabbin' Blues
TTITLE11=The Treniers - The Moondog
TTITLE12=Annie Laurie - Stop Talkin' and Start Walkin'
TTITLE13=Red Rodney Sextet - Did This Menu Please!
TTITLE14=Paul Gayten - It Ain't Nothing Happening
TTITLE15=Chuck Willis - You Broke My Heart
TTITLE16=The Treniers - Poontang
TTITLE17=Hadda Brooks - Brook's Boogie
TTITLE18=Big Maybelle - Jinny Mule
TTITLE19=Titus Turner - Livin' in Misery
TTITLE20=Jumpin' Joe Williams with Red Saunders and His Orchestra - Vood
TTITLE20=oo Blues
TTITLE21=The Bill Davis Trio - Bring the Money In
TTITLE22=Sammy Cotton - You the Kind of Women
TTITLE23=Annie Laurie - I'm in the Mood for You
TTITLE24=Chuck Willis - Make Up Your Mind
TTITLE25=Paul Gayten - Cow Cow Blues
EXTD=
EXTT0=
EXTT1=
EXTT2=
EXTT3=
EXTT4=
EXTT5=
EXTT6=
EXTT7=
EXTT8=
EXTT9=
EXTT10=
EXTT11=
EXTT12=
EXTT13=
EXTT14=
EXTT15=
EXTT16=
EXTT17=
EXTT18=
EXTT19=
EXTT20=
EXTT21=
EXTT22=
EXTT23=
EXTT24=
EXTT25=
PLAYORDER=
